<svg id="visual" viewBox="0 0 1400 860" width="1400" height="860" xmlns="http://www.w3.org/2000/svg" xmlns:xlink="http://www.w3.org/1999/xlink" version="1.1"><rect x="0" y="0" width="1400" height="860" fill="#001220"></rect><defs><linearGradient id="grad1_0" x1="38.6%" y1="0%" x2="100%" y2="100%"><stop offset="17.441860465116278%" stop-color="#001220" stop-opacity="1"></stop><stop offset="82.55813953488372%" stop-color="#001220" stop-opacity="1"></stop></linearGradient></defs><defs><linearGradient id="grad2_0" x1="0%" y1="0%" x2="61.4%" y2="100%"><stop offset="17.441860465116278%" stop-color="#001220" stop-opacity="1"></stop><stop offset="82.55813953488372%" stop-color="#001220" stop-opacity="1"></stop></linearGradient></defs><g transform="translate(1400, 0)"><path d="M0 410.8C-44.3 409 -88.7 407.3 -126.9 390.7C-165.2 374 -197.3 342.4 -225.7 310.7C-254.1 278.9 -278.8 246.9 -292.9 212.8C-306.9 178.7 -310.2 142.4 -328.1 106.6C-346 70.8 -378.4 35.4 -410.8 0L0 0Z" fill="#f7ff00"></path></g><g transform="translate(0, 860)"><path d="M0 -410.8C37.7 -384.9 75.5 -359 111.2 -342.4C147 -325.8 180.9 -318.4 222.2 -305.8C263.5 -293.2 312.3 -275.4 332.3 -241.4C352.3 -207.5 343.6 -157.3 351.9 -114.3C360.2 -71.4 385.5 -35.7 410.8 0L0 0Z" fill="#f7ff00"></path></g></svg>