<svg id="visual" viewBox="0 0 1400 800" width="1400" height="800" xmlns="http://www.w3.org/2000/svg" xmlns:xlink="http://www.w3.org/1999/xlink" version="1.1"><rect x="0" y="0" width="1400" height="800" fill="#001122"></rect><defs><linearGradient id="grad1_0" x1="42.9%" y1="0%" x2="100%" y2="100%"><stop offset="15%" stop-color="#001122" stop-opacity="1"></stop><stop offset="85%" stop-color="#001122" stop-opacity="1"></stop></linearGradient></defs><defs><linearGradient id="grad2_0" x1="0%" y1="0%" x2="57.1%" y2="100%"><stop offset="15%" stop-color="#001122" stop-opacity="1"></stop><stop offset="85%" stop-color="#001122" stop-opacity="1"></stop></linearGradient></defs><g transform="translate(1400, 0)"><path d="M0 400C-39.2 391.7 -78.4 383.4 -121.8 374.7C-165.1 366 -212.5 356.9 -235.1 323.6C-257.7 290.3 -255.3 232.9 -267.8 194.6C-280.2 156.2 -307.4 137.1 -331.9 107.8C-356.4 78.6 -378.2 39.3 -400 0L0 0Z" fill="#55d81b"></path></g><g transform="translate(0, 800)"><path d="M0 -400C42.9 -397.2 85.8 -394.4 123.6 -380.4C161.5 -366.5 194.3 -341.3 229.8 -316.3C265.4 -291.3 303.6 -266.4 317.1 -230.4C330.6 -194.4 319.4 -147.2 329.1 -106.9C338.7 -66.7 369.4 -33.3 400 0L0 0Z" fill="#55d81b"></path></g></svg>