<svg id="visual" viewBox="0 0 1400 860" width="1400" height="860" xmlns="http://www.w3.org/2000/svg" xmlns:xlink="http://www.w3.org/1999/xlink" version="1.1"><rect x="0" y="0" width="1400" height="860" fill="#001220"></rect><defs><linearGradient id="grad1_0" x1="38.6%" y1="0%" x2="100%" y2="100%"><stop offset="17.441860465116278%" stop-color="#001220" stop-opacity="1"></stop><stop offset="82.55813953488372%" stop-color="#001220" stop-opacity="1"></stop></linearGradient></defs><defs><linearGradient id="grad2_0" x1="0%" y1="0%" x2="61.4%" y2="100%"><stop offset="17.441860465116278%" stop-color="#001220" stop-opacity="1"></stop><stop offset="82.55813953488372%" stop-color="#001220" stop-opacity="1"></stop></linearGradient></defs><g transform="translate(1400, 0)"><path d="M0 451.8C-64.3 451.2 -128.5 450.6 -172.9 417.4C-217.3 384.3 -241.9 318.7 -270.8 270.8C-299.8 223 -333.1 192.9 -364 150.8C-394.9 108.6 -423.4 54.3 -451.8 0L0 0Z" fill="#da2b2b"></path></g><g transform="translate(0, 860)"><path d="M0 -451.8C54.2 -428.7 108.3 -405.6 158 -381.6C207.8 -357.5 253.1 -332.4 299.1 -299.1C345.1 -265.8 391.9 -224.1 417.4 -172.9C443 -121.7 447.4 -60.8 451.8 0L0 0Z" fill="#da2b2b"></path></g></svg>