<svg id="visual" viewBox="0 0 1400 860" width="1400" height="860" xmlns="http://www.w3.org/2000/svg" xmlns:xlink="http://www.w3.org/1999/xlink" version="1.1"><rect x="0" y="0" width="1400" height="860" fill="#001220"></rect><defs><linearGradient id="grad1_0" x1="38.6%" y1="0%" x2="100%" y2="100%"><stop offset="17.441860465116278%" stop-color="#001220" stop-opacity="1"></stop><stop offset="82.55813953488372%" stop-color="#001220" stop-opacity="1"></stop></linearGradient></defs><defs><linearGradient id="grad2_0" x1="0%" y1="0%" x2="61.4%" y2="100%"><stop offset="17.441860465116278%" stop-color="#001220" stop-opacity="1"></stop><stop offset="82.55813953488372%" stop-color="#001220" stop-opacity="1"></stop></linearGradient></defs><g transform="translate(1400, 0)"><path d="M0 451.8C-51.6 431.7 -103.2 411.6 -163.4 394.5C-223.6 377.4 -292.3 363.3 -319.5 319.5C-346.7 275.7 -332.3 202.1 -347.4 143.9C-362.5 85.7 -407.2 42.8 -451.8 0L0 0Z" fill="#00be1d"></path></g><g transform="translate(0, 860)"><path d="M0 -451.8C50 -424.1 100 -396.3 156.9 -378.8C213.8 -361.3 277.8 -354 319.5 -319.5C361.2 -285 380.8 -223.1 399.1 -165.3C417.5 -107.5 434.7 -53.8 451.8 0L0 0Z" fill="#00be1d"></path></g></svg>