<svg id="visual" viewBox="0 0 1400 860" width="1400" height="860" xmlns="http://www.w3.org/2000/svg" xmlns:xlink="http://www.w3.org/1999/xlink" version="1.1"><rect x="0" y="0" width="1400" height="860" fill="#001220"></rect><defs><linearGradient id="grad1_0" x1="38.6%" y1="0%" x2="100%" y2="100%"><stop offset="17.441860465116278%" stop-color="#001220" stop-opacity="1"></stop><stop offset="82.55813953488372%" stop-color="#001220" stop-opacity="1"></stop></linearGradient></defs><defs><linearGradient id="grad2_0" x1="0%" y1="0%" x2="61.4%" y2="100%"><stop offset="17.441860465116278%" stop-color="#001220" stop-opacity="1"></stop><stop offset="82.55813953488372%" stop-color="#001220" stop-opacity="1"></stop></linearGradient></defs><g transform="translate(1400, 0)"><path d="M0 451.8C-48.2 409.7 -96.3 367.6 -140.8 340C-185.3 312.4 -226.2 299.4 -276.5 276.5C-326.8 253.5 -386.6 220.6 -417.4 172.9C-448.3 125.2 -450 62.6 -451.8 0L0 0Z" fill="#56269d"></path></g><g transform="translate(0, 860)"><path d="M0 -451.8C56.2 -441.8 112.4 -431.8 171.1 -413C229.7 -394.1 290.8 -366.5 319.5 -319.5C348.2 -272.5 344.6 -206.1 361.2 -149.6C377.9 -93.2 414.9 -46.6 451.8 0L0 0Z" fill="#56269d"></path></g></svg>