<svg id="visual" viewBox="0 0 1400 860" width="1400" height="860" xmlns="http://www.w3.org/2000/svg" xmlns:xlink="http://www.w3.org/1999/xlink" version="1.1"><path d="M0 242L127 242L127 311L255 311L255 190L382 190L382 207L509 207L509 250L636 250L636 173L764 173L764 259L891 259L891 147L1018 147L1018 328L1145 328L1145 182L1273 182L1273 139L1400 139L1400 207L1400 0L1400 0L1273 0L1273 0L1145 0L1145 0L1018 0L1018 0L891 0L891 0L764 0L764 0L636 0L636 0L509 0L509 0L382 0L382 0L255 0L255 0L127 0L127 0L0 0Z" fill="#001122"></path><path d="M0 457L127 457L127 543L255 543L255 319L382 319L382 422L509 422L509 457L636 457L636 397L764 397L764 371L891 371L891 336L1018 336L1018 526L1145 526L1145 354L1273 354L1273 207L1400 207L1400 293L1400 205L1400 137L1273 137L1273 180L1145 180L1145 326L1018 326L1018 145L891 145L891 257L764 257L764 171L636 171L636 248L509 248L509 205L382 205L382 188L255 188L255 309L127 309L127 240L0 240Z" fill="#002955"></path><path d="M0 586L127 586L127 646L255 646L255 457L382 457L382 543L509 543L509 534L636 534L636 508L764 508L764 465L891 465L891 422L1018 422L1018 663L1145 663L1145 431L1273 431L1273 345L1400 345L1400 371L1400 291L1400 205L1273 205L1273 352L1145 352L1145 524L1018 524L1018 334L891 334L891 369L764 369L764 395L636 395L636 455L509 455L509 420L382 420L382 317L255 317L255 541L127 541L127 455L0 455Z" fill="#003e8c"></path><path d="M0 672L127 672L127 732L255 732L255 612L382 612L382 637L509 637L509 715L636 715L636 577L764 577L764 560L891 560L891 500L1018 500L1018 741L1145 741L1145 500L1273 500L1273 508L1400 508L1400 440L1400 369L1400 343L1273 343L1273 429L1145 429L1145 661L1018 661L1018 420L891 420L891 463L764 463L764 506L636 506L636 532L509 532L509 541L382 541L382 455L255 455L255 644L127 644L127 584L0 584Z" fill="#0052c5"></path><path d="M0 861L127 861L127 861L255 861L255 861L382 861L382 861L509 861L509 861L636 861L636 861L764 861L764 861L891 861L891 861L1018 861L1018 861L1145 861L1145 861L1273 861L1273 861L1400 861L1400 861L1400 438L1400 506L1273 506L1273 498L1145 498L1145 739L1018 739L1018 498L891 498L891 558L764 558L764 575L636 575L636 713L509 713L509 635L382 635L382 610L255 610L255 730L127 730L127 670L0 670Z" fill="#0066ff"></path></svg>